#!OML:ASF F:\VICON\USERDATA\INSTALL\SteveWalk\SteveWalk.ASF
:FULLY-SPECIFIED
:DEGREES
258
root 0.159232 16.3372 11.9871 19.2196 -4.76601 -1.87441
lowerback -17.587 2.18869 2.36362
upperback -4.54329 2.36145 1.49587
thorax 5.00201 1.17383 0.755101
lowerneck -4.17163 -0.878334 -0.870964
upperneck 10.5709 -0.988557 -1.16515
head 4.2055 -0.577275 -0.284227
rclavicle -4.8578e-015 1.94809e-014
rhumerus -12.7361 7.27575 -82.2418
rradius 51.1976
rwrist -17.1008
rhand -19.2857 -39.5878
rfingers 7.12502
rthumb 7.02937 -69.451
lclavicle -4.8578e-015 1.94809e-014
lhumerus -59.7933 26.7089 58.3139
lradius 12.6591
lwrist -35.4709
lhand -9.62889 -14.9458
lfingers 7.12502
lthumb 16.341 14.3858
rfemur -12.4359 -10.7524 24.6261
rtibia 24.4541
rfoot -25.6123 19.985
rtoes 4.39084
lfemur -48.9904 4.88256 -21.0866
ltibia 21.4523
lfoot -9.73874 6.94258
ltoes -3.21278
259
root 0.16764 16.3084 12.2056 19.5156 -5.39223 -2.4072
lowerback -17.9946 2.51626 2.9048
upperback -4.46508 2.67248 1.51511
thorax 5.32667 1.33113 0.558133
lowerneck -4.24042 -0.850414 -0.826753
upperneck 10.3675 -0.952656 -1.19629
head 4.14575 -0.558239 -0.299797
rclavicle 8.10048e-015 -7.95139e-015
rhumerus -11.8068 8.18868 -82.0188
rradius 52.2058
rwrist -17.6996
rhand -19.3369 -35.9478
rfingers 7.12502
rthumb 6.97998 -65.8127
lclavicle 8.10048e-015 -7.95139e-015
lhumerus -60.4651 26.3235 58.0621
lradius 12.6694
lwrist -34.648
lhand -9.49767 -14.9174
lfingers 7.12502
lthumb 16.4673 14.4037
rfemur -11.0046 -10.4197 24.7553
rtibia 22.8434
rfoot -25.5474 19.9838
rtoes 1.03953
lfemur -49.5132 5.04544 -20.3247
ltibia 19.4907
lfoot -9.87381 6.86477
ltoes 0.146486
260
root 0.174506 16.2856 12.4264 19.5696 -5.78897 -2.66279
lowerback -17.9283 2.6819 3.15569
upperback -4.55103 2.85115 1.47906
thorax 5.21526 1.41958 0.413022
lowerneck -3.89514 -0.848417 -0.769252
upperneck 10.1078 -0.962847 -1.18789
head 3.98388 -0.558257 -0.30365
rclavicle 2.11706e-014 3.97569e-015
rhumerus -11.3122 8.23078 -81.8083
rradius 52.4164
rwrist -16.1689
rhand -18.0076 -32.6941
rfingers 7.12502
rthumb 8.26301 -62.5126
lclavicle 2.11706e-014 3.97569e-015
lhumerus -61.4756 25.9491 57.4027
lradius 12.6492
lwrist -34.1717
lhand -8.6159 -13.6426
lfingers 7.12502
lthumb 17.3161 15.606
rfemur -9.49733 -9.98505 24.6315
rtibia 21.5492
rfoot -25.4304 19.775
rtoes -1.2512
lfemur -49.8724 6.20523 -21.0079
ltibia 17.9108
lfoot -10.2552 5.58446
ltoes 2.84033
261
root 0.185392 16.2697 12.6522 19.6002 -6.15844 -2.76055
lowerback -17.7902 2.78726 3.27884
upperback -4.66671 2.98097 1.40533
thorax 5.0305 1.48226 0.284361
lowerneck -3.93984 -0.81282 -0.883137
upperneck 10.2551 -0.923186 -0.998994
head 4.04694 -0.535552 -0.220136
rclavicle -1.11195e-014 -6.36111e-015
rhumerus -10.9454 8.77631 -81.6255
rradius 53.213
rwrist -16.3813
rhand -17.9002 -32.48
rfingers 7.12502
rthumb 8.36661 -62.2943
lclavicle -1.11195e-014 -6.36111e-015
lhumerus -62.7202 25.9103 56.2382
lradius 12.6356
lwrist -34.4238
lhand -10.6323 -14.9339
lfingers 7.12502
lthumb 15.3746 14.4744
rfemur -8.24082 -9.83278 24.2851
rtibia 20.7028
rfoot -24.5319 20.8572
rtoes 1.95578
lfemur -50.2858 7.93423 -22.5199
ltibia 16.5016
lfoot -10.7647 3.2285
ltoes 4.80519
262
root 0.198091 16.2524 12.8746 19.7692 -6.38772 -3.13379
lowerback -17.8618 2.94031 3.72634
upperback -4.68422 3.09749 1.40383
thorax 5.0744 1.54217 0.0600508
lowerneck -4.09467 -0.820011 -0.974936
upperneck 10.268 -0.934018 -0.894927
head 4.0834 -0.540174 -0.170808
rclavicle 3.87009e-014 1.43125e-014
rhumerus -10.3931 9.16578 -81.417
rradius 53.8488
rwrist -15.9607
rhand -17.6289 -32.8065
rfingers 7.12502
rthumb 8.62848 -62.6101
lclavicle 3.87009e-014 1.43125e-014
lhumerus -63.7199 26.053 55.0961
lradius 12.4407
lwrist -34.8907
lhand -11.6987 -15.7753
lfingers 7.12502
lthumb 14.3473 13.709
rfemur -7.41217 -9.60235 24.2676
rtibia 20.3899
rfoot -23.2547 22.2672
rtoes 6.24231
lfemur -50.5945 9.63689 -23.8287
ltibia 14.939
lfoot -10.7677 0.659743
ltoes 4.67648
263
root 0.199345 16.2283 13.0796 19.7966 -6.90658 -2.78346
lowerback -17.7288 2.96554 3.14902
upperback -4.6973 3.24924 1.2744
thorax 4.97195 1.6123 0.273851
lowerneck -4.06246 -0.830535 -1.00374
upperneck 10.0738 -0.944461 -0.931456
head 4.0076 -0.546947 -0.177175
rclavicle 1.84249e-014 -7.95139e-016
rhumerus -10.0501 9.42401 -81.1404
rradius 54.7091
rwrist -15.4837
rhand -17.0061 -33.5156
rfingers 7.12502
rthumb 9.22947 -63.2936
lclavicle 1.84249e-014 -7.95139e-016
lhumerus -64.5959 26.1418 54.1401
lradius 12.1944
lwrist -35.3048
lhand -12.4098 -16.2437
lfingers 7.12502
lthumb 13.6621 13.2879
rfemur -6.68683 -8.85903 23.5329
rtibia 20.3209
rfoot -23.0509 22.0571
rtoes 4.38366
lfemur -50.5387 9.92846 -24.6402
ltibia 13.42
lfoot -10.5218 -0.157042
ltoes 2.11531
264
root 0.188908 16.1922 13.2704 19.416 -7.66727 -2.12869
lowerback -16.9465 2.96301 2.04004
upperback -4.72054 3.48482 1.05728
thorax 4.48749 1.72252 0.676309
lowerneck -3.90886 -0.807864 -1.05152
upperneck 9.81242 -0.93125 -0.765673
head 3.88538 -0.533069 -0.111053
rclavicle -1.9953e-014 -1.03368e-014
rhumerus -9.83158 9.52278 -80.9923
rradius 55.4876
rwrist -15.4478
rhand -17.1098 -32.9029
rfingers 7.12502
rthumb 9.12935 -62.6853
lclavicle -1.9953e-014 -1.03368e-014
lhumerus -65.2923 25.9697 53.495
lradius 12.1211
lwrist -35.2187
lhand -12.6956 -16.2989
lfingers 7.12502
lthumb 13.3866 13.2511
rfemur -5.71231 -7.25072 22.5205
rtibia 20.4159
rfoot -23.5138 20.2817
rtoes -1.66561
lfemur -50.0636 10.4115 -25.7304
ltibia 12.1389
lfoot -10.6932 -0.963473
ltoes -1.28522
265
root 0.199264 16.1486 13.5244 19.484 -7.47314 -2.2373
lowerback -17.3402 2.97286 2.22859
upperback -4.67718 3.45596 0.965829
thorax 4.7593 1.70881 0.49017
lowerneck -4.07319 -0.810099 -1.12882
upperneck 9.8726 -0.953818 -0.476602
head 3.94139 -0.534881 -0.00381596
rclavicle 2.004e-014 8.34896e-015
rhumerus -9.60397 9.54631 -80.8911
rradius 56.0412
rwrist -15.6198
rhand -17.5829 -31.9335
rfingers 7.12502
rthumb 8.67289 -61.7353
lclavicle 2.004e-014 8.34896e-015
lhumerus -65.7621 25.5167 53.2672
lradius 12.2744
lwrist -34.7349
lhand -12.3622 -15.9343
lfingers 7.12502
lthumb 13.7079 13.5942
rfemur -4.77333 -7.40016 22.3179
rtibia 20.4323
rfoot -23.2686 20.7474
rtoes -2.20588
lfemur -49.943 10.1711 -25.8841
ltibia 11.6728
lfoot -11.4666 -1.32552
ltoes -9.45611
266
root 0.208975 16.1158 13.7689 19.5663 -7.28571 -2.18128
lowerback -17.7392 2.95681 2.23579
upperback -4.55762 3.42726 0.808592
thorax 5.10886 1.69525 0.338419
lowerneck -4.57509 -0.89349 -1.22875
upperneck 10.1007 -1.07932 -0.178808
head 4.12593 -0.588489 0.103692
rclavicle -2.54444e-014 -2.34566e-014
rhumerus -9.3975 9.43968 -80.8563
rradius 56.7249
rwrist -15.5474
rhand -17.7192 -32.5652
rfingers 7.12502
rthumb 8.54135 -62.3725
lclavicle -2.54444e-014 -2.34566e-014
lhumerus -66.5474 26.0257 51.4963
lradius 12.0772
lwrist -36.0388
lhand -12.1156 -15.5218
lfingers 7.12502
lthumb 13.9456 13.9905
rfemur -3.9161 -7.57699 21.9355
rtibia 20.4162
rfoot -22.3842 21.5197
rtoes -1.90131
lfemur -50.0523 9.92451 -26.1493
ltibia 12.09
lfoot -12.2716 -2.2516
ltoes -8.69547
267
root 0.218285 16.0897 14.017 19.836 -6.92874 -2.57475
lowerback -18.5235 2.96633 2.68629
upperback -4.33793 3.32349 0.808887
thorax 5.78396 1.65009 0.10859
lowerneck -4.99384 -0.95481 -1.23622
upperneck 10.0773 -1.17193 -0.0158181
head 4.20326 -0.626765 0.152841
rclavicle 6.01945e-014 3.37934e-014
rhumerus -9.21458 9.42849 -80.7292
rradius 57.4904
rwrist -15.4154
rhand -17.7562 -32.9726
rfingers 7.12502
rthumb 8.50561 -62.7813
lclavicle 6.01945e-014 3.37934e-014
lhumerus -67.302 26.7762 49.6519
lradius 11.8924
lwrist -37.6251
lhand -12.1448 -15.4125
lfingers 7.12502
lthumb 13.9175 14.1018
rfemur -3.18939 -7.53955 22.127
rtibia 20.3441
rfoot -21.4476 21.7535
rtoes -4.30297
lfemur -50.5611 9.76786 -25.8575
ltibia 13.4402
lfoot -12.3828 -3.77292
ltoes -0.113394
268
root 0.218561 16.0488 14.2525 19.7659 -6.7001 -2.51315
lowerback -18.6182 2.88454 2.5255
upperback -4.25916 3.25089 0.684932
thorax 5.91628 1.61412 0.0573336
lowerneck -4.9562 -0.970182 -1.02098
upperneck 9.80279 -1.21896 0.0446315
head 4.09606 -0.63815 0.133405
rclavicle -2.09842e-014 -1.35174e-014
rhumerus -9.57887 9.25601 -80.7593
rradius 58.3756
rwrist -15.3505
rhand -17.9231 -32.6182
rfingers 7.12502
rthumb 8.34456 -62.4334
lclavicle -2.09842e-014 -1.35174e-014
lhumerus -68.2614 27.2799 47.5714
lradius 11.6192
lwrist -39.4888
lhand -12.6058 -16.0415
lfingers 7.12502
lthumb 13.4732 13.5027
rfemur -2.33075 -7.01064 21.9011
rtibia 20.6814
rfoot -21.5128 20.9312
rtoes -9.38459
lfemur -50.5578 7.83746 -24.3875
ltibia 15.0124
lfoot -11.7323 -2.06223
ltoes 4.89447
269
root 0.212245 15.9994 14.4833 19.592 -6.71076 -2.10569
lowerback -18.2077 2.75238 1.76023
upperback -4.42622 3.2462 0.55653
thorax 5.48553 1.6032 0.325843
lowerneck -4.75337 -0.975577 -0.926338
upperneck 9.74762 -1.24121 0.0888683
head 4.03558 -0.643555 0.131444
rclavicle 4.7522e-015 6.95746e-015
rhumerus -10.4902 9.17025 -80.7217
rradius 59.2226
rwrist -15.3255
rhand -17.9153 -32.3411
rfingers 7.12502
rthumb 8.35207 -62.1559
lclavicle 4.7522e-015 6.95746e-015
lhumerus -69.918 28.1126 44.3088
lradius 11.177
lwrist -42.3408
lhand -12.9219 -16.4368
lfingers 7.12502
lthumb 13.1685 13.1273
rfemur -1.58467 -6.29791 21.2969
rtibia 21.3361
rfoot -21.6507 20.1876
rtoes -13.7222
lfemur -50.519 6.64705 -24.0827
ltibia 16.8172
lfoot -11.7767 -0.617906
ltoes 0.728039
